<?xml version="1.0" encoding="UTF-8" standalone="no"?>
<svg
   xmlns:dc="http://purl.org/dc/elements/1.1/"
   xmlns:cc="http://creativecommons.org/ns#"
   xmlns:rdf="http://www.w3.org/1999/02/22-rdf-syntax-ns#"
   xmlns:svg="http://www.w3.org/2000/svg"
   xmlns="http://www.w3.org/2000/svg"
   xmlns:sodipodi="http://sodipodi.sourceforge.net/DTD/sodipodi-0.dtd"
   xmlns:inkscape="http://www.inkscape.org/namespaces/inkscape"
   width="247.84242"
   height="178"
   viewBox="0 0 247.84243 178"
   version="1.1"
   id="svg896"
   sodipodi:docname="recipemd-mark-solid.svg"
   inkscape:version="0.92.4 5da689c313, 2019-01-14">
  <metadata
     id="metadata902">
    <rdf:RDF>
      <cc:Work
         rdf:about="">
        <dc:format>image/svg+xml</dc:format>
        <dc:type
           rdf:resource="http://purl.org/dc/dcmitype/StillImage" />
        <dc:title />
      </cc:Work>
    </rdf:RDF>
  </metadata>
  <defs
     id="defs900" />
  <sodipodi:namedview
     pagecolor="#ffffff"
     bordercolor="#666666"
     borderopacity="1"
     objecttolerance="10"
     gridtolerance="10"
     guidetolerance="10"
     inkscape:pageopacity="0"
     inkscape:pageshadow="2"
     inkscape:window-width="1366"
     inkscape:window-height="731"
     id="namedview898"
     showgrid="false"
     showguides="true"
     inkscape:guide-bbox="true"
     inkscape:zoom="1.0419627"
     inkscape:cx="326.38387"
     inkscape:cy="113.21677"
     inkscape:window-x="0"
     inkscape:window-y="18"
     inkscape:window-maximized="0"
     inkscape:current-layer="svg896"
     fit-margin-top="0"
     fit-margin-left="-0.3"
     fit-margin-right="0"
     fit-margin-bottom="0">
    <sodipodi:guide
       position="19.771221,123.00001"
       orientation="0,1"
       id="guide906"
       inkscape:locked="false"
       inkscape:label=""
       inkscape:color="rgb(0,0,255)" />
    <sodipodi:guide
       position="24.771221,148.00001"
       orientation="1,0"
       id="guide909"
       inkscape:locked="false"
       inkscape:label="left edge"
       inkscape:color="rgb(0,0,255)" />
    <sodipodi:guide
       position="222.77121,148.00001"
       orientation="1,0"
       id="guide911"
       inkscape:locked="false"
       inkscape:label="right edge"
       inkscape:color="rgb(0,0,255)" />
    <sodipodi:guide
       position="108.77121,153.00001"
       orientation="1,0"
       id="guide917"
       inkscape:locked="false" />
    <sodipodi:guide
       position="138.77121,153.00001"
       orientation="1,0"
       id="guide919"
       inkscape:locked="false" />
    <sodipodi:guide
       position="113.77121,191.20393"
       orientation="1,0"
       id="guide923"
       inkscape:locked="false"
       inkscape:label=""
       inkscape:color="rgb(0,0,255)" />
    <sodipodi:guide
       position="133.77121,197.65091"
       orientation="1,0"
       id="guide925"
       inkscape:locked="false"
       inkscape:label=""
       inkscape:color="rgb(0,0,255)" />
    <sodipodi:guide
       position="123.77121,163.00001"
       orientation="0,1"
       id="guide927"
       inkscape:locked="false"
       inkscape:label=""
       inkscape:color="rgb(0,0,255)" />
    <sodipodi:guide
       position="11.61353,93.000017"
       orientation="0,1"
       id="guide929"
       inkscape:locked="false"
       inkscape:label=""
       inkscape:color="rgb(0,0,255)" />
    <sodipodi:guide
       position="-171.13146,-552.32306"
       orientation="0,1"
       id="guide983"
       inkscape:locked="false" />
    <sodipodi:guide
       position="82.476491,173.00001"
       orientation="0,1"
       id="guide900"
       inkscape:locked="false"
       inkscape:label=""
       inkscape:color="rgb(0,0,255)" />
  </sodipodi:namedview>
  <path
     style="color:#000000;font-style:normal;font-variant:normal;font-weight:normal;font-stretch:normal;font-size:medium;line-height:normal;font-family:sans-serif;font-variant-ligatures:normal;font-variant-position:normal;font-variant-caps:normal;font-variant-numeric:normal;font-variant-alternates:normal;font-feature-settings:normal;text-indent:0;text-align:start;text-decoration:none;text-decoration-line:none;text-decoration-style:solid;text-decoration-color:#000000;letter-spacing:normal;word-spacing:normal;text-transform:none;writing-mode:lr-tb;direction:ltr;text-orientation:mixed;dominant-baseline:auto;baseline-shift:baseline;text-anchor:start;white-space:normal;shape-padding:0;clip-rule:nonzero;display:inline;overflow:visible;visibility:visible;opacity:1;isolation:auto;mix-blend-mode:normal;color-interpolation:sRGB;color-interpolation-filters:linearRGB;solid-color:#000000;solid-opacity:1;vector-effect:none;fill:#000000;fill-opacity:1;fill-rule:nonzero;stroke:none;stroke-width:10;stroke-linecap:butt;stroke-linejoin:miter;stroke-miterlimit:4;stroke-dasharray:none;stroke-dashoffset:0;stroke-opacity:1;color-rendering:auto;image-rendering:auto;shape-rendering:auto;text-rendering:auto;enable-background:accumulate"
     d="M 118.77148 0 C 114.60482 0 111.022 1.9291698 108.36133 4.5898438 C 105.70065 7.2505176 103.77148 10.833333 103.77148 15 L 103.77148 20.451172 C 66.467667 22.157735 45.956928 28.630608 34.314453 35.730469 C 27.52476 39.870987 23.769924 44.303325 21.820312 47.960938 C 20.845509 49.789743 20.322001 51.410358 20.052734 52.652344 C 19.783468 53.89433 19.771484 55.101562 19.771484 55.101562 L 19.771484 80 L 4.7714844 80 A 5.0005 5.0005 0 1 0 4.7714844 90 L 19.771484 90 L 19.771484 163 C 19.771484 171.22351 26.547971 178 34.771484 178 L 212.77148 178 C 220.995 178 227.77148 171.22351 227.77148 163 L 227.77148 90 L 242.77148 90 A 5.0005 5.0005 0 1 0 242.77148 80 L 227.77148 80 L 227.77148 54.949219 L 227.76953 54.898438 C 227.76953 54.898438 227.53625 51.457821 225.48828 47.845703 C 223.44031 44.233586 219.59505 39.842219 212.74609 35.716797 C 201.02593 28.65718 180.55547 22.188301 143.77148 20.462891 L 143.77148 15 C 143.77148 10.833333 141.84231 7.2505176 139.18164 4.5898438 C 136.52097 1.9291696 132.93815 0 128.77148 0 L 118.77148 0 z M 49.771484 80 L 69.771484 80 L 89.771484 105 L 109.77148 80 L 129.77148 80 L 129.77148 148 L 109.77148 148 L 109.77148 109 L 89.771484 134 L 69.771484 109 L 69.771484 148 L 49.771484 148 L 49.771484 80 z M 164.77148 80 L 184.77148 80 L 184.77148 115 L 204.77148 115 L 174.77148 148 L 144.77148 115 L 164.77148 115 L 164.77148 80 z "
     id="path57" />
</svg>
